<?xml version="1.0" encoding="UTF-8" standalone="no"?>
<svg
   width="367.45096"
   zoomAndPan="magnify"
   viewBox="0 0 275.58822 126.22344"
   height="168.29793"
   preserveAspectRatio="xMidYMid"
   version="1.0"
   id="svg95"
   sodipodi:docname="ME.svg"
   xml:space="preserve"
   xmlns:inkscape="http://www.inkscape.org/namespaces/inkscape"
   xmlns:sodipodi="http://sodipodi.sourceforge.net/DTD/sodipodi-0.dtd"
   xmlns="http://www.w3.org/2000/svg"
   xmlns:svg="http://www.w3.org/2000/svg"><sodipodi:namedview
     id="namedview95"
     pagecolor="#ffffff"
     bordercolor="#000000"
     borderopacity="0.25"
     inkscape:showpageshadow="2"
     inkscape:pageopacity="0.0"
     inkscape:pagecheckerboard="0"
     inkscape:deskcolor="#d1d1d1"><inkscape:page
       x="0"
       y="0"
       width="275.58823"
       height="126.22344"
       id="page2"
       margin="0"
       bleed="0" /></sodipodi:namedview><defs
     id="defs5" /><g
     id="g106"
     transform="translate(-7.9070262,-17.399415)"><g
       clip-path="none"
       id="g11"
       style="fill:#000000;fill-opacity:1" /><path
       id="path4"
       d="M 112.05762,17.399414 95.52539,56.71289 c -2.02887,4.824562 -3.986073,9.484622 -5.805176,13.822266 h 0.776367 C 97.994317,52.787776 106.6099,32.545112 106.68457,32.61914 c 0.0536,0.05312 4.75339,11.261729 10.44434,24.908203 l 5.42431,13.007813 h 12.77344 l -0.65039,-1.561524 7.58056,-18.1333 c 4.16951,-9.973398 7.62385,-18.181799 7.67725,-18.241699 0.0534,-0.0599 0.19082,0.119591 0.30469,0.399902 0.28737,0.707471 7.61541,18.16122 15.75586,37.536621 h 12.90234 l -0.0806,-0.19043 -22.38282,-52.932128 h -0.68408 -0.68555 L 144.72799,42.358886 C 139.04305,56.079497 134.35,67.355663 134.2983,67.416503 h -0.001 l -0.001,0.0015 h -0.001 -0.001 -0.001 -10e-4 c -6.9e-4,-2.38e-4 -0.004,-0.0011 -0.004,-0.0015 -0.0945,-0.05652 -0.52571,-0.946132 -0.99903,-2.069824 -0.5049,-1.198598 -5.24829,-12.459434 -10.54101,-25.023925 l -9.62403,-22.844238 -0.53174,-0.03955 z m 66.83935,53.135742 7.36084,17.406738 z m 7.36084,17.406738 h -12.94922 c 7.93056,18.869776 14.85718,35.340126 14.87403,35.356936 0.026,0.026 2.9666,0.0308 6.5332,0.0117 l 6.4834,-0.0337 z m -43.68457,-0.0088 -12.54639,0.0088 c 1.49045,3.579831 3.90278,9.394197 6.59327,15.897946 l 8.04052,19.43701 6.3252,0.0337 c 5.0447,0.0277 6.31085,9.2e-4 6.25635,-0.1333 -0.0376,-0.0926 -5.13038,-12.32642 -11.31739,-27.18604 z m -15.87744,0.0088 c 0,0 2.08097,-4.668071 0,0 z m 0,0 h -1.50732 l -2.52247,6.183105 c -2.67995,6.567111 -5.19425,12.525641 -5.67773,13.456051 -1.67154,3.2167 -4.04287,6.43346 -6.35303,8.61914 -3.51059,3.32139 -7.23454,5.2775 -11.444821,6.01172 -1.02735,0.17918 -4.470078,0.24805 -5.361328,0.10694 -9.5176,-1.50699 -15.206881,-7.61797 -15.587402,-16.7417 -0.123783,-2.96805 0.313889,-5.879787 1.346191,-8.950198 0.156187,-0.464548 1.528975,-3.782549 3.581543,-8.685058 h -0.153809 v -1.382813 c -2.679919,6.424126 -4.371133,10.513349 -4.489746,10.869141 -1.417594,4.252258 -1.65881,9.063978 -0.644531,12.854008 0.921159,3.44208 2.977195,6.57927 5.771484,8.8081 2.515274,2.00627 6.10868,3.57162 9.641602,4.19824 0.683684,0.12152 1.830367,0.16181 3.60791,0.12891 2.265069,-0.0419 2.786704,-0.0934 4.006347,-0.39844 6.84457,-1.71171 12.77207,-6.79309 16.6084,-14.23681 0.47332,-0.91837 3.10492,-6.86209 5.84766,-13.2085 1.40685,-3.255318 2.51307,-5.790365 3.33105,-7.631836 z m -43.526367,0 C 0,0 0,0 83.169433,87.941894 Z"
       sodipodi:nodetypes="ccccscccccsscccccccccccccccscccccccccccccccccccccccsccccssscsscccssscssscc" /><g
       id="g96"
       style="fill:#000000;fill-opacity:1"><g
         fill="#000000"
         fill-opacity="1"
         id="g14"
         style="fill:#000000;fill-opacity:1"><g
           transform="translate(72.296961,83.355721)"
           id="g13"
           style="fill:#000000;fill-opacity:1"><g
             id="g12"
             style="fill:#000000;fill-opacity:1"><path
               d="M 7.15625,-2.421875 H 2.109375 L 1.015625,0 H 0.03125 l 4.140625,-9.0625 h 0.9375 L 9.25,0 H 8.234375 Z M 6.8125,-3.203125 4.625,-8.0625 2.453125,-3.203125 Z M 3.5,-10.09375 c -0.15625,0 -0.292969,-0.05078 -0.40625,-0.15625 -0.105469,-0.101562 -0.15625,-0.234375 -0.15625,-0.390625 0,-0.15625 0.050781,-0.285156 0.15625,-0.390625 0.113281,-0.113281 0.25,-0.171875 0.40625,-0.171875 0.144531,0 0.273438,0.05859 0.390625,0.171875 0.113281,0.105469 0.171875,0.234375 0.171875,0.390625 0,0.148437 -0.058594,0.277344 -0.171875,0.390625 C 3.785156,-10.144531 3.65625,-10.09375 3.5,-10.09375 Z m 2.296875,0 c -0.15625,0 -0.289063,-0.05078 -0.390625,-0.15625 C 5.300781,-10.363281 5.25,-10.492188 5.25,-10.640625 c 0,-0.15625 0.050781,-0.285156 0.15625,-0.390625 0.113281,-0.113281 0.242188,-0.171875 0.390625,-0.171875 0.15625,0 0.285156,0.05859 0.390625,0.171875 0.113281,0.105469 0.171875,0.234375 0.171875,0.390625 0,0.15625 -0.058594,0.289063 -0.171875,0.390625 -0.105469,0.105469 -0.234375,0.15625 -0.390625,0.15625 z m 0,0"
               id="path11"
               style="fill:#000000;fill-opacity:1" /></g></g></g><g
         fill="#000000"
         fill-opacity="1"
         id="g17"
         style="fill:#000000;fill-opacity:1"><g
           transform="translate(91.501445,83.355721)"
           id="g16"
           style="fill:#000000;fill-opacity:1"><g
             id="g15"
             style="fill:#000000;fill-opacity:1"><path
               d="m 3.96875,0.078125 c -0.667969,0 -1.3125,-0.1015625 -1.9375,-0.3125 C 1.414062,-0.453125 0.941406,-0.738281 0.609375,-1.09375 l 0.375,-0.75 c 0.320313,0.335938 0.753906,0.605469 1.296875,0.8125 0.550781,0.199219 1.113281,0.296875 1.6875,0.296875 0.8125,0 1.421875,-0.144531 1.828125,-0.4375 0.40625,-0.300781 0.609375,-0.691406 0.609375,-1.171875 0,-0.363281 -0.109375,-0.648438 -0.328125,-0.859375 -0.21875,-0.21875 -0.492187,-0.382813 -0.8125,-0.5 C 4.941406,-3.816406 4.5,-3.945312 3.9375,-4.09375 3.25,-4.257812 2.703125,-4.421875 2.296875,-4.578125 1.890625,-4.742188 1.539062,-4.988281 1.25,-5.3125 0.96875,-5.644531 0.828125,-6.09375 0.828125,-6.65625 c 0,-0.445312 0.117187,-0.859375 0.359375,-1.234375 0.238281,-0.382813 0.609375,-0.6875 1.109375,-0.90625 0.5,-0.226563 1.125,-0.34375 1.875,-0.34375 0.507813,0 1.015625,0.074219 1.515625,0.21875 0.5,0.148437 0.925781,0.34375 1.28125,0.59375 L 6.65625,-7.5625 C 6.269531,-7.8125 5.859375,-8 5.421875,-8.125 c -0.429687,-0.125 -0.84375,-0.1875 -1.25,-0.1875 -0.804687,0 -1.40625,0.152344 -1.8125,0.453125 -0.398437,0.304687 -0.59375,0.699219 -0.59375,1.1875 0,0.367187 0.109375,0.65625 0.328125,0.875 0.226562,0.21875 0.503906,0.386719 0.828125,0.5 0.332031,0.117187 0.78125,0.242187 1.34375,0.375 0.664063,0.167969 1.203125,0.335937 1.609375,0.5 0.414062,0.15625 0.765625,0.398437 1.046875,0.71875 0.28125,0.324219 0.421875,0.761719 0.421875,1.3125 0,0.460937 -0.125,0.875 -0.375,1.25 -0.242188,0.375 -0.617188,0.671875 -1.125,0.890625 -0.511719,0.21875 -1.136719,0.328125 -1.875,0.328125 z m 0,0"
               id="path14"
               style="fill:#000000;fill-opacity:1" /></g></g></g><g
         fill="#000000"
         fill-opacity="1"
         id="g20"
         style="fill:#000000;fill-opacity:1"><g
           transform="translate(109.25806,83.355721)"
           id="g19"
           style="fill:#000000;fill-opacity:1"><g
             id="g18"
             style="fill:#000000;fill-opacity:1"><path
               d="m 3.234375,-8.234375 h -3.1875 V -9.0625 H 7.375 v 0.828125 H 4.1875 V 0 H 3.234375 Z m 0,0"
               id="path17"
               style="fill:#000000;fill-opacity:1" /></g></g></g><g
         fill="#000000"
         fill-opacity="1"
         id="g23"
         style="fill:#000000;fill-opacity:1"><g
           transform="translate(126.61397,83.355721)"
           id="g22"
           style="fill:#000000;fill-opacity:1"><g
             id="g21"
             style="fill:#000000;fill-opacity:1"><path
               d="M 9.046875,-9.0625 V 0 H 8.09375 V -4.171875 H 2.4375 V 0 H 1.46875 V -9.0625 H 2.4375 v 4.046875 H 8.09375 V -9.0625 Z m 0,0"
               id="path20"
               style="fill:#000000;fill-opacity:1" /></g></g></g><g
         fill="#000000"
         fill-opacity="1"
         id="g26"
         style="fill:#000000;fill-opacity:1"><g
           transform="translate(147.05944,83.355721)"
           id="g25"
           style="fill:#000000;fill-opacity:1"><g
             id="g24"
             style="fill:#000000;fill-opacity:1"><path
               d="M 7.875,-0.828125 V 0 H 1.46875 V -9.0625 H 7.6875 v 0.828125 h -5.25 V -5 h 4.671875 v 0.8125 H 2.4375 v 3.359375 z m 0,0"
               id="path23"
               style="fill:#000000;fill-opacity:1" /></g></g></g><g
         fill="#000000"
         fill-opacity="1"
         id="g29"
         style="fill:#000000;fill-opacity:1"><g
           transform="translate(165.64343,83.355721)"
           id="g28"
           style="fill:#000000;fill-opacity:1"><g
             id="g27"
             style="fill:#000000;fill-opacity:1"><path
               d="m 3.234375,-8.234375 h -3.1875 V -9.0625 H 7.375 v 0.828125 H 4.1875 V 0 H 3.234375 Z m 0,0"
               id="path26"
               style="fill:#000000;fill-opacity:1" /></g></g></g><g
         fill="#000000"
         fill-opacity="1"
         id="g32"
         style="fill:#000000;fill-opacity:1"><g
           transform="translate(182.99933,83.355721)"
           id="g31"
           style="fill:#000000;fill-opacity:1"><g
             id="g30"
             style="fill:#000000;fill-opacity:1"><path
               d="M 1.46875,-9.0625 H 2.4375 V 0 H 1.46875 Z m 0,0"
               id="path29"
               style="fill:#000000;fill-opacity:1" /></g></g></g><g
         fill="#000000"
         fill-opacity="1"
         id="g35"
         style="fill:#000000;fill-opacity:1"><g
           transform="translate(196.83908,83.355721)"
           id="g34"
           style="fill:#000000;fill-opacity:1"><g
             id="g33"
             style="fill:#000000;fill-opacity:1"><path
               d="M 4.28125,-4.25 2.4375,-2.375 V 0 H 1.46875 V -9.0625 H 2.4375 v 5.484375 L 7.75,-9.0625 H 8.84375 L 4.921875,-4.953125 9.125,0 H 7.984375 Z m 0,0"
               id="path32"
               style="fill:#000000;fill-opacity:1" /></g></g></g></g><g
       fill="#000000"
       fill-opacity="1"
       id="g38"><g
         transform="translate(6.766401,143.56035)"
         id="g37"><g
           id="g36"><path
             d="m 5.515625,-3.59375 c 0.457031,0.105469 0.8125,0.308594 1.0625,0.609375 0.25,0.292969 0.375,0.667969 0.375,1.125 0,0.59375 -0.226563,1.054687 -0.671875,1.375 C 5.84375,-0.160156 5.191406,0 4.328125,0 h -3.1875 v -6.953125 h 3 c 0.769531,0 1.367187,0.15625 1.796875,0.46875 0.425781,0.3125 0.640625,0.75 0.640625,1.3125 0,0.386719 -0.09375,0.714844 -0.28125,0.984375 -0.1875,0.273438 -0.449219,0.46875 -0.78125,0.59375 z M 1.875,-6.34375 v 2.515625 h 2.203125 c 0.5625,0 0.992187,-0.101563 1.296875,-0.3125 C 5.6875,-4.359375 5.84375,-4.675781 5.84375,-5.09375 5.84375,-5.5 5.6875,-5.804688 5.375,-6.015625 5.070312,-6.234375 4.640625,-6.34375 4.078125,-6.34375 Z m 2.453125,5.734375 c 0.613281,0 1.082031,-0.101563 1.40625,-0.3125 0.320313,-0.21875 0.484375,-0.550781 0.484375,-1 0,-0.863281 -0.632812,-1.296875 -1.890625,-1.296875 H 1.875 v 2.609375 z m 0,0"
             id="path35" /></g></g></g><g
       fill="#000000"
       fill-opacity="1"
       id="g41"><g
         transform="translate(21.742037,143.56035)"
         id="g40"><g
           id="g39"><path
             d="M 3.515625,-2.40625 V 0 h -0.71875 v -2.40625 l -2.78125,-4.546875 h 0.78125 l 2.390625,3.90625 2.375,-3.90625 h 0.734375 z m 0,0"
             id="path38" /></g></g></g><g
       fill="#000000"
       fill-opacity="1"
       id="g44"><g
         transform="translate(35.684768,143.56035)"
         id="g43"><g
           id="g42" /></g></g><g
       fill="#000000"
       fill-opacity="1"
       id="g47"><g
         transform="translate(45.922775,143.56035)"
         id="g46"><g
           id="g45"><path
             d="M 8.359375,-6.953125 V 0 H 7.65625 V -5.5625 L 4.921875,-0.890625 H 4.578125 L 1.84375,-5.53125 V 0 H 1.140625 v -6.953125 h 0.59375 l 3.03125,5.15625 L 7.75,-6.953125 Z m 0,0"
             id="path44" /></g></g></g><g
       fill="#000000"
       fill-opacity="1"
       id="g50"><g
         transform="translate(63.043818,143.56035)"
         id="g49"><g
           id="g48"><path
             d="m 4.171875,0.0625 c -0.6875,0 -1.3125,-0.1484375 -1.875,-0.453125 -0.5625,-0.3125 -1,-0.734375 -1.3125,-1.265625 -0.3125,-0.539062 -0.46875,-1.148438 -0.46875,-1.828125 0,-0.664063 0.15625,-1.265625 0.46875,-1.796875 0.3125,-0.539062 0.75,-0.960938 1.3125,-1.265625 0.5625,-0.3125 1.1875,-0.46875 1.875,-0.46875 0.6875,0 1.304687,0.152344 1.859375,0.453125 0.550781,0.304688 0.988281,0.726562 1.3125,1.265625 0.320312,0.542969 0.484375,1.148437 0.484375,1.8125 0,0.679687 -0.164063,1.289063 -0.484375,1.828125 C 7.019531,-1.125 6.582031,-0.703125 6.03125,-0.390625 5.476562,-0.0859375 4.859375,0.0625 4.171875,0.0625 Z m 0,-0.65625 c 0.550781,0 1.046875,-0.125 1.484375,-0.375 0.445312,-0.25 0.796875,-0.59375 1.046875,-1.03125 0.25,-0.4375 0.375,-0.929688 0.375,-1.484375 0,-0.539063 -0.125,-1.03125 -0.375,-1.46875 -0.25,-0.4375 -0.601563,-0.78125 -1.046875,-1.03125 -0.4375,-0.25 -0.933594,-0.375 -1.484375,-0.375 -0.554687,0 -1.054687,0.125 -1.5,0.375 -0.449219,0.25 -0.796875,0.59375 -1.046875,1.03125 -0.25,0.4375 -0.375,0.929687 -0.375,1.46875 0,0.554687 0.125,1.046875 0.375,1.484375 0.25,0.4375 0.597656,0.78125 1.046875,1.03125 0.445313,0.25 0.945313,0.375 1.5,0.375 z m 0,0"
             id="path47" /></g></g></g><g
       fill="#000000"
       fill-opacity="1"
       id="g53"><g
         transform="translate(79.012728,143.56035)"
         id="g52"><g
           id="g51"><path
             d="M 6.953125,-6.953125 V 0 H 6.21875 V -3.203125 H 1.875 V 0 H 1.140625 V -6.953125 H 1.875 v 3.09375 h 4.34375 v -3.09375 z m 0,0"
             id="path50" /></g></g></g><g
       fill="#000000"
       fill-opacity="1"
       id="g56"><g
         transform="translate(94.723398,143.56035)"
         id="g55"><g
           id="g54"><path
             d="M 5.5,-1.859375 H 1.625 L 0.78125,0 H 0.015625 l 3.1875,-6.953125 h 0.71875 L 7.109375,0 H 6.328125 Z M 5.234375,-2.453125 3.5625,-6.1875 1.890625,-2.453125 Z m 0,0"
             id="path53" /></g></g></g><g
       fill="#000000"
       fill-opacity="1"
       id="g59"><g
         transform="translate(109.48057,143.56035)"
         id="g58"><g
           id="g57"><path
             d="M 8.359375,-6.953125 V 0 H 7.65625 V -5.5625 L 4.921875,-0.890625 H 4.578125 L 1.84375,-5.53125 V 0 H 1.140625 v -6.953125 h 0.59375 l 3.03125,5.15625 L 7.75,-6.953125 Z m 0,0"
             id="path56" /></g></g></g><g
       fill="#000000"
       fill-opacity="1"
       id="g62"><g
         transform="translate(126.60162,143.56035)"
         id="g61"><g
           id="g60"><path
             d="M 6.046875,-0.640625 V 0 H 1.140625 V -6.953125 H 5.90625 V -6.3125 H 1.875 v 2.46875 h 3.59375 v 0.625 H 1.875 v 2.578125 z m 0,0"
             id="path59" /></g></g></g><g
       fill="#000000"
       fill-opacity="1"
       id="g65"><g
         transform="translate(140.88204,143.56035)"
         id="g64"><g
           id="g63"><path
             d="M 1.140625,-6.953125 H 3.96875 c 0.726562,0 1.375,0.148437 1.9375,0.4375 0.5625,0.292969 1,0.703125 1.3125,1.234375 0.3125,0.53125 0.46875,1.132812 0.46875,1.796875 0,0.679687 -0.15625,1.28125 -0.46875,1.8125 -0.3125,0.523437 -0.75,0.933594 -1.3125,1.234375 C 5.34375,-0.144531 4.695312,0 3.96875,0 H 1.140625 Z m 2.78125,6.3125 c 0.613281,0 1.148437,-0.117187 1.609375,-0.359375 0.457031,-0.238281 0.8125,-0.570312 1.0625,-1 0.25,-0.425781 0.375,-0.921875 0.375,-1.484375 0,-0.550781 -0.125,-1.039063 -0.375,-1.46875 -0.25,-0.425781 -0.605469,-0.757813 -1.0625,-1 C 5.070312,-6.191406 4.535156,-6.3125 3.921875,-6.3125 H 1.875 v 5.671875 z m 0,0"
             id="path62" /></g></g></g><g
       fill="#000000"
       fill-opacity="1"
       id="g68"><g
         transform="translate(156.72183,143.56035)"
         id="g67"><g
           id="g66" /></g></g><g
       fill="#000000"
       fill-opacity="1"
       id="g71"><g
         transform="translate(166.95984,143.56035)"
         id="g70"><g
           id="g69"><path
             d="M 6.046875,-0.640625 V 0 H 1.140625 V -6.953125 H 5.90625 V -6.3125 H 1.875 v 2.46875 h 3.59375 v 0.625 H 1.875 v 2.578125 z m 0,0"
             id="path68" /></g></g></g><g
       fill="#000000"
       fill-opacity="1"
       id="g74"><g
         transform="translate(181.24027,143.56035)"
         id="g73"><g
           id="g72"><path
             d="M 1.140625,-6.953125 H 1.875 v 6.3125 H 5.765625 V 0 h -4.625 z m 0,0"
             id="path71" /></g></g></g><g
       fill="#000000"
       fill-opacity="1"
       id="g77"><g
         transform="translate(194.64664,143.56035)"
         id="g76"><g
           id="g75"><path
             d="M 3.046875,0.0625 C 2.535156,0.0625 2.039062,-0.0195312 1.5625,-0.1875 1.09375,-0.351562 0.726562,-0.570312 0.46875,-0.84375 L 0.75,-1.40625 c 0.257812,0.25 0.597656,0.453125 1.015625,0.609375 0.414063,0.15625 0.84375,0.234375 1.28125,0.234375 0.625,0 1.09375,-0.113281 1.40625,-0.34375 0.3125,-0.226562 0.46875,-0.523438 0.46875,-0.890625 0,-0.28125 -0.089844,-0.503906 -0.265625,-0.671875 -0.167969,-0.164062 -0.375,-0.289062 -0.625,-0.375 -0.242188,-0.09375 -0.578125,-0.191406 -1.015625,-0.296875 -0.523437,-0.132813 -0.9375,-0.257813 -1.25,-0.375 -0.3125,-0.125 -0.578125,-0.3125 -0.796875,-0.5625 C 0.75,-4.335938 0.640625,-4.679688 0.640625,-5.109375 c 0,-0.351563 0.085937,-0.671875 0.265625,-0.953125 0.1875,-0.289062 0.472656,-0.519531 0.859375,-0.6875 0.382813,-0.175781 0.863281,-0.265625 1.4375,-0.265625 0.394531,0 0.78125,0.058594 1.15625,0.171875 0.382813,0.105469 0.71875,0.25 1,0.4375 l -0.25,0.59375 C 4.816406,-6.007812 4.503906,-6.15625 4.171875,-6.25 3.835938,-6.34375 3.515625,-6.390625 3.203125,-6.390625 2.585938,-6.390625 2.125,-6.269531 1.8125,-6.03125 1.507812,-5.800781 1.359375,-5.5 1.359375,-5.125 c 0,0.28125 0.082031,0.507812 0.25,0.671875 C 1.785156,-4.285156 2,-4.15625 2.25,-4.0625 c 0.257812,0.085938 0.601562,0.179688 1.03125,0.28125 0.507812,0.125 0.921875,0.25 1.234375,0.375 0.3125,0.125 0.578125,0.3125 0.796875,0.5625 0.21875,0.25 0.328125,0.585938 0.328125,1 0,0.355469 -0.09375,0.679688 -0.28125,0.96875 -0.1875,0.28125 -0.480469,0.511719 -0.875,0.6875 -0.386719,0.1679688 -0.867187,0.25 -1.4375,0.25 z m 0,0"
             id="path74" /></g></g></g><g
       fill="#000000"
       fill-opacity="1"
       id="g80"><g
         transform="translate(208.39073,143.56035)"
         id="g79"><g
           id="g78"><path
             d="M 6.046875,-0.640625 V 0 H 1.140625 V -6.953125 H 5.90625 V -6.3125 H 1.875 v 2.46875 h 3.59375 v 0.625 H 1.875 v 2.578125 z m 0,0"
             id="path77" /></g></g></g><g
       fill="#000000"
       fill-opacity="1"
       id="g83"><g
         transform="translate(222.58173,143.56035)"
         id="g82"><g
           id="g81"><path
             d="M 3.515625,-2.40625 V 0 h -0.71875 v -2.40625 l -2.78125,-4.546875 h 0.78125 l 2.390625,3.90625 2.375,-3.90625 h 0.734375 z m 0,0"
             id="path80" /></g></g></g><g
       fill="#000000"
       fill-opacity="1"
       id="g86"><g
         transform="translate(236.2264,143.56035)"
         id="g85"><g
           id="g84"><path
             d="m 4.171875,0.0625 c -0.6875,0 -1.3125,-0.1484375 -1.875,-0.453125 -0.5625,-0.3125 -1,-0.734375 -1.3125,-1.265625 -0.3125,-0.539062 -0.46875,-1.148438 -0.46875,-1.828125 0,-0.664063 0.15625,-1.265625 0.46875,-1.796875 0.3125,-0.539062 0.75,-0.960938 1.3125,-1.265625 0.5625,-0.3125 1.1875,-0.46875 1.875,-0.46875 0.6875,0 1.304687,0.152344 1.859375,0.453125 0.550781,0.304688 0.988281,0.726562 1.3125,1.265625 0.320312,0.542969 0.484375,1.148437 0.484375,1.8125 0,0.679687 -0.164063,1.289063 -0.484375,1.828125 C 7.019531,-1.125 6.582031,-0.703125 6.03125,-0.390625 5.476562,-0.0859375 4.859375,0.0625 4.171875,0.0625 Z m 0,-0.65625 c 0.550781,0 1.046875,-0.125 1.484375,-0.375 0.445312,-0.25 0.796875,-0.59375 1.046875,-1.03125 0.25,-0.4375 0.375,-0.929688 0.375,-1.484375 0,-0.539063 -0.125,-1.03125 -0.375,-1.46875 -0.25,-0.4375 -0.601563,-0.78125 -1.046875,-1.03125 -0.4375,-0.25 -0.933594,-0.375 -1.484375,-0.375 -0.554687,0 -1.054687,0.125 -1.5,0.375 -0.449219,0.25 -0.796875,0.59375 -1.046875,1.03125 -0.25,0.4375 -0.375,0.929687 -0.375,1.46875 0,0.554687 0.125,1.046875 0.375,1.484375 0.25,0.4375 0.597656,0.78125 1.046875,1.03125 0.445313,0.25 0.945313,0.375 1.5,0.375 z m 0,0"
             id="path83" /></g></g></g><g
       fill="#000000"
       fill-opacity="1"
       id="g89"><g
         transform="translate(252.19531,143.56035)"
         id="g88"><g
           id="g87"><path
             d="m 3.9375,0.0625 c -0.90625,0 -1.609375,-0.253906 -2.109375,-0.765625 -0.5,-0.519531 -0.75,-1.273437 -0.75,-2.265625 V -6.953125 H 1.8125 V -3 c 0,0.8125 0.179688,1.417969 0.546875,1.8125 0.363281,0.398438 0.890625,0.59375 1.578125,0.59375 0.695312,0 1.226562,-0.195312 1.59375,-0.59375 0.363281,-0.394531 0.546875,-1 0.546875,-1.8125 V -6.953125 H 6.78125 v 3.984375 c 0,0.992188 -0.25,1.746094 -0.75,2.265625 C 5.53125,-0.191406 4.832031,0.0625 3.9375,0.0625 Z m 0,0"
             id="path86" /></g></g></g><g
       fill="#000000"
       fill-opacity="1"
       id="g92"><g
         transform="translate(267.69741,143.56035)"
         id="g91"><g
           id="g90"><path
             d="m 1.875,-6.3125 v 2.71875 h 3.59375 v 0.640625 H 1.875 V 0 H 1.140625 V -6.953125 H 5.90625 V -6.3125 Z m 0,0"
             id="path89" /></g></g></g><g
       fill="#000000"
       fill-opacity="1"
       id="g95"><g
         transform="translate(281.62025,143.56035)"
         id="g94"><g
           id="g93"><path
             d="M 1.140625,-6.953125 H 1.875 V 0 H 1.140625 Z m 0,0"
             id="path92" /></g></g></g></g></svg>
